<?xml version="1.0" encoding="utf-8"?>
<!-- Generator: Adobe Illustrator 14.0.0, SVG Export Plug-In . SVG Version: 6.00 Build 43363)  -->
<!DOCTYPE svg PUBLIC "-//W3C//DTD SVG 1.1//EN" "http://www.w3.org/Graphics/SVG/1.1/DTD/svg11.dtd">
<svg version="1.1" xmlns="http://www.w3.org/2000/svg" xmlns:xlink="http://www.w3.org/1999/xlink" x="0px" y="0px" width="364.5px"
	 height="140px" viewBox="0 0 364.5 140" enable-background="new 0 0 364.5 140" xml:space="preserve">
<g id="lineas">
	
		<line fill="none" stroke="#000000" stroke-width="4" stroke-linecap="round" stroke-linejoin="round" x1="100.083" y1="55.548" x2="340.332" y2="55.548"/>
	
		<line fill="none" stroke="#000000" stroke-width="4" stroke-linecap="round" stroke-linejoin="round" x1="81.118" y1="113" x2="313" y2="113"/>
	
		<line fill="none" stroke="#000000" stroke-width="4" stroke-linecap="round" stroke-linejoin="round" x1="313" y1="55.548" x2="313" y2="113"/>
	<g>
		
			<line fill="none" stroke="#000000" stroke-width="4" stroke-linecap="round" stroke-linejoin="round" x1="81.118" y1="74.875" x2="81.118" y2="113"/>
		
			<line fill="none" stroke="#000000" stroke-width="4" stroke-linecap="round" stroke-linejoin="round" x1="81.118" y1="80.225" x2="74.608" y2="86.733"/>
		
			<line fill="none" stroke="#000000" stroke-width="4" stroke-linecap="round" stroke-linejoin="round" x1="81.118" y1="80.225" x2="87.627" y2="86.733"/>
	</g>
	<g>
		
			<line fill="none" stroke="#000000" stroke-width="4" stroke-linecap="round" stroke-linejoin="round" x1="62.954" y1="55.548" x2="24.829" y2="55.548"/>
		
			<line fill="none" stroke="#000000" stroke-width="4" stroke-linecap="round" stroke-linejoin="round" x1="57.604" y1="55.548" x2="51.095" y2="49.039"/>
		
			<line fill="none" stroke="#000000" stroke-width="4" stroke-linecap="round" stroke-linejoin="round" x1="57.604" y1="55.548" x2="51.095" y2="62.058"/>
	</g>
	<polygon fill="#ECEDED" stroke="#000000" stroke-width="4" stroke-linecap="round" stroke-linejoin="round" points="
		212.247,99.621 189.076,113 212.247,126.378 	"/>
	<polygon fill="#ECEDED" stroke="#000000" stroke-width="4" stroke-linecap="round" stroke-linejoin="round" points="
		132.583,44.864 151.088,55.548 132.583,66.232 	"/>
</g>
<g id="adder">
	<g>
		<path d="M81.118,32.657c-12.859,0-23.284,10.425-23.284,23.284c0,12.859,10.425,23.284,23.284,23.284
			c12.859,0,23.284-10.424,23.284-23.284C104.402,43.082,93.977,32.657,81.118,32.657z M94.33,58.214H84.033v10.273h-5.831V58.214
			H67.905v-5.854h10.297V42.062h5.831v10.297H94.33V58.214z"/>
	</g>
</g>
<g id="memory">
	<g>
		<linearGradient id="SVGID_1_" gradientUnits="userSpaceOnUse" x1="171.3696" y1="55.5498" x2="277.1006" y2="55.5498">
			<stop  offset="0" style="stop-color:#CCCCCC"/>
			<stop  offset="0.2491" style="stop-color:#CACACA"/>
			<stop  offset="0.3956" style="stop-color:#C1C1C1"/>
			<stop  offset="0.5155" style="stop-color:#B3B3B3"/>
			<stop  offset="0.621" style="stop-color:#9F9F9F"/>
			<stop  offset="0.7171" style="stop-color:#858585"/>
			<stop  offset="0.8063" style="stop-color:#656565"/>
			<stop  offset="0.8903" style="stop-color:#3F3F3F"/>
			<stop  offset="0.9681" style="stop-color:#141414"/>
			<stop  offset="1" style="stop-color:#000000"/>
		</linearGradient>
		<rect x="171.37" y="32.266" fill="url(#SVGID_1_)" stroke="#000000" width="105.731" height="46.568"/>
		<rect x="170.85" y="32.266" fill="none" stroke="#000000" width="10.625" height="46.568"/>
		<rect x="181.475" y="32.266" fill="none" stroke="#000000" width="10.625" height="46.568"/>
		<rect x="192.1" y="32.266" fill="none" stroke="#000000" width="10.625" height="46.568"/>
		<rect x="202.726" y="32.266" fill="none" stroke="#000000" width="10.625" height="46.568"/>
		<rect x="213.351" y="32.266" fill="none" stroke="#000000" width="10.625" height="46.568"/>
		<rect x="223.976" y="32.266" fill="none" stroke="#000000" width="10.625" height="46.568"/>
		<rect x="255.851" y="32.266" fill="none" stroke="#000000" width="10.625" height="46.568"/>
		<rect x="234.601" y="32.266" fill="none" stroke="#000000" width="10.625" height="46.568"/>
		<rect x="245.226" y="32.266" fill="none" stroke="#000000" width="10.625" height="46.568"/>
		<rect x="266.476" y="32.266" fill="none" stroke="#000000" width="10.625" height="46.568"/>
	</g>
</g>
<g id="texto">
	<g>
		<path d="M17.875,32.266V25.27h-0.996v-1.008l1.992-0.996h1.008v9H17.875z"/>
		<path d="M25.879,27.262c0.04-0.328,0.144-0.576,0.312-0.744s0.396-0.252,0.684-0.252h1.008c0.544,0,1.012,0.196,1.404,0.588
			c0.392,0.392,0.588,0.864,0.588,1.416v1.992c0,0.544-0.196,1.014-0.588,1.41c-0.392,0.396-0.86,0.594-1.404,0.594h-2.004
			c-0.544,0-1.014-0.198-1.41-0.594s-0.594-0.866-0.594-1.41V26.77c0-0.96,0.346-1.784,1.038-2.472
			c0.692-0.688,1.514-1.032,2.466-1.032h1.5v0.996h-0.996c-0.552,0-1.024,0.198-1.416,0.594s-0.588,0.866-0.588,1.41V27.262z
			 M27.883,30.262V28.27c0-0.28-0.098-0.518-0.294-0.714c-0.196-0.196-0.434-0.294-0.714-0.294c-0.272,0-0.506,0.098-0.702,0.294
			c-0.196,0.196-0.294,0.434-0.294,0.714v1.992c0,0.272,0.098,0.508,0.294,0.708c0.196,0.2,0.43,0.3,0.702,0.3
			c0.28,0,0.518-0.1,0.714-0.3C27.785,30.77,27.883,30.534,27.883,30.262z"/>
		<path d="M31.879,32.266v-9h2.004v3c0.04-0.336,0.144-0.586,0.312-0.75s0.396-0.246,0.684-0.246h1.008
			c0.544,0,1.012,0.196,1.404,0.588c0.392,0.392,0.588,0.86,0.588,1.404v3c0,0.544-0.196,1.014-0.588,1.41
			c-0.392,0.396-0.86,0.594-1.404,0.594H31.879z M33.883,31.27h0.996c0.28,0,0.518-0.1,0.714-0.3c0.196-0.2,0.294-0.436,0.294-0.708
			v-3c0-0.272-0.098-0.506-0.294-0.702c-0.196-0.196-0.434-0.294-0.714-0.294c-0.272,0-0.506,0.098-0.702,0.294
			c-0.196,0.196-0.294,0.43-0.294,0.702V31.27z"/>
	</g>
	<g>
		<path d="M147.332,32.266V25.27h-0.996v-1.008l1.992-0.996h1.008v9H147.332z"/>
		<path d="M155.336,27.262c0.04-0.328,0.144-0.576,0.312-0.744s0.396-0.252,0.684-0.252h1.008c0.544,0,1.012,0.196,1.404,0.588
			c0.392,0.392,0.588,0.864,0.588,1.416v1.992c0,0.544-0.196,1.014-0.588,1.41c-0.392,0.396-0.86,0.594-1.404,0.594h-2.004
			c-0.544,0-1.014-0.198-1.41-0.594s-0.594-0.866-0.594-1.41V26.77c0-0.96,0.346-1.784,1.038-2.472
			c0.692-0.688,1.514-1.032,2.466-1.032h1.5v0.996h-0.996c-0.552,0-1.024,0.198-1.416,0.594s-0.588,0.866-0.588,1.41V27.262z
			 M157.34,30.262V28.27c0-0.28-0.098-0.518-0.294-0.714c-0.196-0.196-0.434-0.294-0.714-0.294c-0.272,0-0.506,0.098-0.702,0.294
			c-0.196,0.196-0.294,0.434-0.294,0.714v1.992c0,0.272,0.098,0.508,0.294,0.708c0.196,0.2,0.43,0.3,0.702,0.3
			c0.28,0,0.518-0.1,0.714-0.3C157.242,30.77,157.34,30.534,157.34,30.262z"/>
		<path d="M161.336,32.266v-9h2.004v3c0.04-0.336,0.144-0.586,0.312-0.75s0.396-0.246,0.684-0.246h1.008
			c0.544,0,1.012,0.196,1.404,0.588c0.392,0.392,0.588,0.86,0.588,1.404v3c0,0.544-0.196,1.014-0.588,1.41
			c-0.392,0.396-0.86,0.594-1.404,0.594H161.336z M163.34,31.27h0.996c0.28,0,0.518-0.1,0.714-0.3
			c0.196-0.2,0.294-0.436,0.294-0.708v-3c0-0.272-0.098-0.506-0.294-0.702c-0.196-0.196-0.434-0.294-0.714-0.294
			c-0.272,0-0.506,0.098-0.702,0.294c-0.196,0.196-0.294,0.43-0.294,0.702V31.27z"/>
	</g>
	<g>
		<path d="M106.898,32.266V25.27h-0.996v-1.008l1.992-0.996h1.008v9H106.898z"/>
		<path d="M112.898,23.266h6v2.004l-0.492,0.996l-0.504,0.996c-0.664,1.408-0.996,2.408-0.996,3v2.004h-2.004v-2.004
			c0-0.664,0.332-1.664,0.996-3l1.008-1.992v-1.008h-4.008V23.266z"/>
		<path d="M120.902,32.266v-9h2.004v3c0.04-0.336,0.144-0.586,0.312-0.75s0.396-0.246,0.684-0.246h1.008
			c0.544,0,1.012,0.196,1.404,0.588c0.392,0.392,0.588,0.86,0.588,1.404v3c0,0.544-0.196,1.014-0.588,1.41
			c-0.392,0.396-0.86,0.594-1.404,0.594H120.902z M122.906,31.27h0.996c0.28,0,0.518-0.1,0.714-0.3
			c0.196-0.2,0.294-0.436,0.294-0.708v-3c0-0.272-0.098-0.506-0.294-0.702c-0.196-0.196-0.434-0.294-0.714-0.294
			c-0.272,0-0.506,0.098-0.702,0.294c-0.196,0.196-0.294,0.43-0.294,0.702V31.27z"/>
	</g>
	<g>
		<path d="M319.668,32.266V25.27h-0.996v-1.008l1.992-0.996h1.008v9H319.668z"/>
		<path d="M327.672,27.262c0.04-0.328,0.144-0.576,0.312-0.744s0.396-0.252,0.685-0.252h1.008c0.544,0,1.013,0.196,1.404,0.588
			c0.392,0.392,0.588,0.864,0.588,1.416v1.992c0,0.544-0.196,1.014-0.588,1.41s-0.86,0.594-1.404,0.594h-2.004
			c-0.544,0-1.015-0.198-1.41-0.594s-0.594-0.866-0.594-1.41V26.77c0-0.96,0.346-1.784,1.038-2.472
			c0.691-0.688,1.514-1.032,2.466-1.032h1.5v0.996h-0.996c-0.552,0-1.024,0.198-1.416,0.594s-0.588,0.866-0.588,1.41V27.262z
			 M329.676,30.262V28.27c0-0.28-0.099-0.518-0.294-0.714c-0.196-0.196-0.434-0.294-0.714-0.294c-0.272,0-0.507,0.098-0.702,0.294
			c-0.196,0.196-0.294,0.434-0.294,0.714v1.992c0,0.272,0.098,0.508,0.294,0.708c0.195,0.2,0.43,0.3,0.702,0.3
			c0.28,0,0.518-0.1,0.714-0.3C329.577,30.77,329.676,30.534,329.676,30.262z"/>
		<path d="M333.672,32.266v-9h2.004v3c0.04-0.336,0.144-0.586,0.312-0.75s0.396-0.246,0.685-0.246h1.008
			c0.544,0,1.013,0.196,1.404,0.588c0.392,0.392,0.588,0.86,0.588,1.404v3c0,0.544-0.196,1.014-0.588,1.41s-0.86,0.594-1.404,0.594
			H333.672z M335.676,31.27h0.996c0.28,0,0.518-0.1,0.714-0.3c0.195-0.2,0.294-0.436,0.294-0.708v-3
			c0-0.272-0.099-0.506-0.294-0.702c-0.196-0.196-0.434-0.294-0.714-0.294c-0.272,0-0.507,0.098-0.702,0.294
			c-0.196,0.196-0.294,0.43-0.294,0.702V31.27z"/>
	</g>
	<text transform="matrix(1 0 0 1 136.334 131.7852)" font-family="'Silom'" font-size="12">16b      32b</text>
	<g>
		
			<line fill="none" stroke="#000000" stroke-width="3" stroke-linecap="round" stroke-linejoin="round" x1="130.833" y1="28.333" x2="142.705" y2="28.333"/>
		
			<line fill="none" stroke="#000000" stroke-width="3" stroke-linecap="round" stroke-linejoin="round" x1="142.705" y1="28.333" x2="137.708" y2="22.531"/>
		
			<line fill="none" stroke="#000000" stroke-width="3" stroke-linecap="round" stroke-linejoin="round" x1="137.708" y1="34.136" x2="142.705" y2="28.333"/>
	</g>
	<g>
		
			<line fill="none" stroke="#000000" stroke-width="3" stroke-linecap="round" stroke-linejoin="round" x1="175.538" y1="127.834" x2="163.667" y2="127.834"/>
		
			<line fill="none" stroke="#000000" stroke-width="3" stroke-linecap="round" stroke-linejoin="round" x1="163.667" y1="127.834" x2="168.664" y2="122.031"/>
		
			<line fill="none" stroke="#000000" stroke-width="3" stroke-linecap="round" stroke-linejoin="round" x1="168.664" y1="133.637" x2="163.667" y2="127.834"/>
	</g>
	<text transform="matrix(1 0 0 1 140 71.5)" font-family="'Silom'" font-size="12">x01</text>
	<text transform="matrix(1 0 0 1 177.25 102)" font-family="'Silom'" font-size="12">x02</text>
</g>
</svg>
